# xmcd
#
# Track frame offsets: 
#        150
#        15674
#        27642
#        39573
#        52996
#        78485
#        90535
#        104228
#        122644
#        136757
#        147501
#        169409
#
# Disc length: 2700 seconds
#
# Revision: 0
# Processed by: cddbd v1.5.2PL0 Copyright (c) Steve Scherf et al.
# Submitted via: ExactAudioCopyFreeDBPlugin 1.0
#
DISCID=a60a8a0c
DTITLE=Bluesin' The Groove featuring Adam Hall - Mess Around
DYEAR=2013
DGENRE=Blues
TTITLE0=Let's Have A Party
TTITLE1=Mess Around
TTITLE2=I'll Be Satisfied
TTITLE3=Night Time Is The Right Time
TTITLE4=Jambalava
TTITLE5=Reet Petite
TTITLE6=Jump Children
TTITLE7=Goin' To Chicago
TTITLE8=Tommy S
TTITLE9=Fools Fall In Love
TTITLE10=Big Chief
TTITLE11=All Of Me
EXTD=
EXTT0=
EXTT1=
EXTT2=
EXTT3=
EXTT4=
EXTT5=
EXTT6=
EXTT7=
EXTT8=
EXTT9=
EXTT10=
EXTT11=
PLAYORDER=
